<?xml version="1.0" encoding="iso-8859-1"?>
<!-- Generator: Adobe Illustrator 19.0.0, SVG Export Plug-In . SVG Version: 6.00 Build 0)  -->
<svg version="1.1" id="Capa_1" xmlns="http://www.w3.org/2000/svg" xmlns:xlink="http://www.w3.org/1999/xlink" x="0px" y="0px"
	 viewBox="0 0 511.843 511.843" style="enable-background:new 0 0 511.843 511.843;" xml:space="preserve">
<g>
	<g>
		<path d="M511.771,33.193c0.171-1.536,0-3.072-0.512-4.565c-0.128-0.363-0.171-0.683-0.32-1.024
			c-0.64-1.387-1.472-2.688-2.709-3.755c-0.171-0.149-0.384-0.192-0.555-0.32c-0.107-0.085-0.128-0.213-0.235-0.277
			c-0.213-0.149-0.469-0.107-0.683-0.235c-1.365-0.832-2.816-1.323-4.352-1.493c-0.299-0.021-0.576-0.128-0.875-0.128
			c-1.771-0.043-3.499,0.384-5.099,1.237c-0.149,0.064-0.299,0.021-0.448,0.107L90.651,257.406
			c-3.627,2.112-5.696,6.144-5.248,10.304c0.427,4.181,3.243,7.701,7.232,9.024l122.944,40.981l40.981,122.944
			c0.085,0.235,0.32,0.341,0.405,0.555c0.704,1.749,1.707,3.392,3.307,4.587c0.021,0.021,0.064,0,0.107,0.043
			c1.792,1.323,3.968,2.112,6.293,2.112c0.213,0,0.448,0,0.661-0.021c0.277-0.021,0.469-0.256,0.747-0.299
			c1.707-0.235,3.264-0.896,4.693-1.941c0.491-0.363,0.917-0.661,1.344-1.109c0.341-0.341,0.789-0.512,1.088-0.896l47.36-63.147
			l13.184-17.579l97.387,41.451c1.344,0.576,2.795,0.875,4.203,0.875c0.085,0,0.149-0.064,0.213-0.064
			c1.685-0.021,3.349-0.405,4.843-1.216c2.88-1.557,4.885-4.331,5.44-7.531l64-362.667
			C511.877,33.598,511.749,33.406,511.771,33.193z M286.341,393.299l9.451-47.296l19.712,8.384L286.341,393.299z M279.323,324.457
			c-0.896,1.237-1.429,2.603-1.728,4.011c0,0.021-0.043,0.064-0.043,0.085l-13.461,67.285l-27.883-83.648l181.547-181.525
			L279.323,324.457z"/>
	</g>
</g>
<g>
	<g>
		<path d="M33.285,401.555c-5.099-4.672-10.112-9.515-15.083-14.464c-4.16-4.139-10.923-4.16-15.083,0.021
			c-4.16,4.16-4.16,10.923,0,15.083c5.163,5.163,10.389,10.197,15.701,15.083c2.069,1.877,4.651,2.816,7.232,2.816
			c2.88,0,5.76-1.152,7.851-3.456C37.893,412.307,37.616,405.545,33.285,401.555z"/>
	</g>
</g>
<g>
	<g>
		<path d="M176.304,469.011l-4.8,0.085c-0.043,0-0.085,0-0.128,0c-8.64,0-17.515-0.917-26.389-2.731
			c-5.717-1.131-11.413,2.517-12.608,8.32c-1.173,5.781,2.539,11.413,8.32,12.587c10.283,2.112,20.629,3.179,30.677,3.179
			c0.043,0,0.107,0,0.149,0l5.568-0.107c5.867-0.213,10.475-5.163,10.261-11.051C187.141,473.406,183.259,468.627,176.304,469.011z"
			/>
	</g>
</g>
<g>
	<g>
		<path d="M99.867,449.875c-9.152-4.736-18.539-10.453-27.947-17.003c-4.8-3.349-11.456-2.197-14.827,2.667
			c-3.371,4.843-2.197,11.499,2.667,14.848c10.155,7.061,20.331,13.248,30.272,18.411c1.579,0.811,3.243,1.195,4.907,1.195
			c3.861,0,7.552-2.091,9.451-5.76C107.141,459.027,105.115,452.606,99.867,449.875z"/>
	</g>
</g>
<g>
	<g>
		<path d="M254.512,453.225c-3.008-5.077-9.536-6.741-14.592-3.755c-5.952,3.52-11.947,6.528-17.856,9.045
			c-5.419,2.325-7.936,8.597-5.632,14.016c1.728,4.032,5.675,6.464,9.813,6.464c1.387,0,2.837-0.277,4.181-0.853
			c6.891-2.944,13.739-6.421,20.309-10.304C255.813,464.851,257.499,458.302,254.512,453.225z"/>
	</g>
</g>
<g>
</g>
<g>
</g>
<g>
</g>
<g>
</g>
<g>
</g>
<g>
</g>
<g>
</g>
<g>
</g>
<g>
</g>
<g>
</g>
<g>
</g>
<g>
</g>
<g>
</g>
<g>
</g>
<g>
</g>
</svg>
