<svg id="Layer_1" enable-background="new 0 0 511.374 511.374" height="512" viewBox="0 0 511.374 511.374" width="512" xmlns="http://www.w3.org/2000/svg"><path d="m127.707 320.025c5.569 0 10.911 2.212 14.849 6.15l36.513 36.51h153.27l36.513-36.51c3.938-3.938 9.279-6.15 14.849-6.15h88.571c16.38 0 27.949-16.043 22.77-31.583-13.198-39.608-37.12-111.174-80.475-241.243-9.407-28.221-35.713-47.181-65.459-47.181h-186.808c-29.747 0-56.052 18.96-65.459 47.181-.806 2.418-53.557 160.67-80.411 241.242-5.179 15.541 6.389 31.584 22.77 31.584zm53.602-135.013c7.988-8.407 21.28-8.749 29.688-.762l23.707 22.521v-79.085c0-11.598 9.402-21 21-21s21 9.402 21 21v79.085l23.707-22.521c8.409-7.988 21.701-7.646 29.688.762 7.988 8.409 7.647 21.701-.762 29.689l-59.17 56.21c-6.348 6.032-16.097 7.647-24.245 3.347-3.702-1.957.12 1.215-63.852-59.557-8.408-7.988-8.75-21.28-.761-29.689z"/><path d="m392.398 362.025-36.513 36.51c-3.938 3.938-9.279 6.15-14.849 6.15h-170.666c-5.569 0-10.911-2.212-14.849-6.15l-36.513-36.51h-95.008c-13.266 0-24.016 10.755-24 24.02.017 14.168.037 32.504.037 56.308 0 38.108 30.894 69.001 69.002 69.001h373.331c38.108 0 69-30.898 69-69.006 0-23.982.002-42.309.003-56.329.002-13.256-10.744-23.995-24-23.995h-94.975z"/></svg>